<svg width="357" height="400" viewBox="0 0 357 400" fill="none" xmlns="http://www.w3.org/2000/svg">
<g opacity="0.15">
<path opacity="0.15" d="M318.331 31.8223H184.297V361.232H318.331V31.8223Z" fill="url(#paint0_linear)"/>
</g>
<path d="M315.164 35.5996L312.645 38.9542" stroke="#424242" stroke-width="0.875193" stroke-linecap="round" stroke-linejoin="round"/>
<path d="M307.743 45.4668L192.363 198.597" stroke="#424242" stroke-width="0.875193" stroke-linecap="round" stroke-linejoin="round" stroke-dasharray="5.12 5.12"/>
<path d="M189.907 201.861L187.4 205.201L190.056 208.374" stroke="#424242" stroke-width="0.875193" stroke-linecap="round" stroke-linejoin="round"/>
<path d="M195.379 214.721L309.903 351.123" stroke="#424242" stroke-width="0.875193" stroke-linecap="round" stroke-linejoin="round" stroke-dasharray="5.25 5.25"/>
<path d="M312.557 354.296L315.225 357.454" stroke="#424242" stroke-width="0.875193" stroke-linecap="round" stroke-linejoin="round"/>
<path d="M187.4 357.455L188.268 353.058" stroke="#424242" stroke-width="0.875193" stroke-linecap="round" stroke-linejoin="round"/>
<path d="M190.039 344.112L249.548 44.4854" stroke="#424242" stroke-width="0.875193" stroke-linecap="round" stroke-linejoin="round" stroke-dasharray="5.33 5.33"/>
<path d="M250.433 40.0119L251.314 35.5996L252.183 40.0119" stroke="#424242" stroke-width="0.875193" stroke-linecap="round" stroke-linejoin="round"/>
<path d="M253.955 48.957L313.463 348.584" stroke="#424242" stroke-width="0.875193" stroke-linecap="round" stroke-linejoin="round" stroke-dasharray="5.33 5.33"/>
<path d="M314.347 353.058L315.228 357.455" stroke="#424242" stroke-width="0.875193" stroke-linecap="round" stroke-linejoin="round"/>
<g opacity="0.15">
<path opacity="0.15" d="M166.919 30.6592H37.2175V362.607H166.919V30.6592Z" fill="url(#paint1_linear)"/>
</g>
<path d="M23.5667 14.0381V379.018H333.419V14.0381H23.5667ZM163.805 358.558H40.3209V34.6488H163.818L163.805 358.558ZM322.039 365.766H180.559V25.3861H322.039V365.766Z" fill="#E6E6E6"/>
<path d="M328.874 18.9639H173.743L187.395 35.6005H315.16L328.874 18.9639Z" fill="url(#paint2_linear)"/>
<path d="M173.743 18.9785V374.076L187.395 357.454V35.6001L173.743 18.9785Z" fill="url(#paint3_linear)"/>
<path d="M173.743 374.092H328.874L315.223 357.455H187.444L173.743 374.092Z" fill="url(#paint4_linear)"/>
<path d="M328.877 374.076V18.9785L315.226 35.6152V357.454L328.877 374.076Z" fill="url(#paint5_linear)"/>
<path d="M163.322 35.2529V358.014H40.8182V35.2529H163.322ZM163.818 34.6484H40.3218V358.618H163.818V34.6484Z" fill="#4D4D4D"/>
<path d="M314.731 36.2656V356.911H187.896V36.2656H314.731ZM315.228 35.6611H187.4V357.515H315.228V35.6611Z" fill="#4D4D4D"/>
<path d="M318.331 31.8223H184.297V361.232H318.331V31.8223Z" stroke="#CCCCCC" stroke-width="0.175039" stroke-miterlimit="10"/>
<path d="M187.395 35.6001L173.743 18.9785" stroke="#CCCCCC" stroke-width="0.175039" stroke-miterlimit="10"/>
<path d="M315.226 35.6001L328.877 18.9785" stroke="#CCCCCC" stroke-width="0.175039" stroke-miterlimit="10"/>
<path d="M187.395 357.455L173.743 374.077" stroke="#CCCCCC" stroke-width="0.175039" stroke-miterlimit="10"/>
<path d="M315.226 357.455L328.877 374.077" stroke="#CCCCCC" stroke-width="0.175039" stroke-miterlimit="10"/>
<path d="M315.228 35.5996H187.4V357.454H315.228V35.5996Z" stroke="#CCCCCC" stroke-width="0.175039" stroke-miterlimit="10"/>
<path d="M328.378 19.6445V373.533H174.239V19.6445H328.378ZM328.874 19.04H173.743V374.137H328.874V19.04Z" fill="#CCCCCC"/>
<path d="M163.818 34.6484H40.3218V358.618H163.818V34.6484Z" stroke="#CCCCCC" stroke-width="0.175039" stroke-miterlimit="10"/>
<path d="M166.919 30.6592H37.2175V362.607H166.919V30.6592Z" stroke="#CCCCCC" stroke-width="0.175039" stroke-miterlimit="10"/>
<path d="M40.3209 34.6488L23.5667 14.0381" stroke="#CCCCCC" stroke-width="0.175039" stroke-miterlimit="10"/>
<path d="M173.747 30.6592H166.922" stroke="#CCCCCC" stroke-width="0.175039" stroke-miterlimit="10"/>
<path d="M40.3209 358.406L23.5667 379.017" stroke="#CCCCCC" stroke-width="0.175039" stroke-miterlimit="10"/>
<path d="M173.747 362.607H166.922" stroke="#CCCCCC" stroke-width="0.175039" stroke-miterlimit="10"/>
<path d="M181.243 186.569H176.701C176.105 186.569 175.621 187.158 175.621 187.884V207.422C175.621 208.148 176.105 208.736 176.701 208.736H181.243C181.839 208.736 182.323 208.148 182.323 207.422V187.884C182.323 187.158 181.839 186.569 181.243 186.569Z" fill="#F2F2F2" stroke="#BDBDBD" stroke-width="0.175039" stroke-miterlimit="10"/>
<path d="M180.173 189.033H177.765C177.32 189.033 176.959 189.473 176.959 190.015V220.403C176.959 220.945 177.32 221.385 177.765 221.385H180.173C180.618 221.385 180.98 220.945 180.98 220.403V190.015C180.98 189.473 180.618 189.033 180.173 189.033Z" fill="#F2F2F2" stroke="#BDBDBD" stroke-width="0.175039" stroke-miterlimit="10"/>
<path d="M333.435 14.0376H23.5701L9.55868 0H347.446L333.435 14.0376Z" fill="url(#paint6_linear)"/>
<path d="M23.5701 14.0377V379.017L9.55868 387.026V0L23.5701 14.0377Z" fill="url(#paint7_linear)"/>
<path d="M23.5701 379.018H333.435L347.446 387.026H9.55868L23.5701 379.018Z" fill="url(#paint8_linear)"/>
<path d="M333.433 379.017V14.0377L347.445 0V387.026L333.433 379.017Z" fill="url(#paint9_linear)"/>
<path d="M357 387.026H0V399.84H357V387.026Z" fill="url(#paint10_linear)"/>
<path d="M330.642 36.1143H329.55C329.18 36.1143 328.88 36.4796 328.88 36.9302V56.1206C328.88 56.5713 329.18 56.9366 329.55 56.9366H330.642C331.013 56.9366 331.313 56.5713 331.313 56.1206V36.9302C331.313 36.4796 331.013 36.1143 330.642 36.1143Z" fill="url(#paint11_linear)"/>
<path d="M330.642 334.245H329.55C329.18 334.245 328.88 334.61 328.88 335.061V354.252C328.88 354.702 329.18 355.068 329.55 355.068H330.642C331.013 355.068 331.313 354.702 331.313 354.252V335.061C331.313 334.61 331.013 334.245 330.642 334.245Z" fill="url(#paint12_linear)"/>
<defs>
<linearGradient id="paint0_linear" x1="302.619" y1="368.198" x2="158.612" y2="43.2096" gradientUnits="userSpaceOnUse">
<stop stop-color="#CCE0F4"/>
<stop offset="0.12" stop-color="#C3DEF4"/>
<stop offset="0.33" stop-color="#A9DAF4"/>
<stop offset="0.59" stop-color="#80D3F4"/>
<stop offset="0.9" stop-color="#47C8F3"/>
<stop offset="1" stop-color="#33C5F3"/>
</linearGradient>
<linearGradient id="paint1_linear" x1="16920.5" y1="80999.4" x2="-25746.6" y2="35196.1" gradientUnits="userSpaceOnUse">
<stop stop-color="#CCE0F4"/>
<stop offset="0.12" stop-color="#C3DEF4"/>
<stop offset="0.33" stop-color="#A9DAF4"/>
<stop offset="0.59" stop-color="#80D3F4"/>
<stop offset="0.9" stop-color="#47C8F3"/>
<stop offset="1" stop-color="#33C5F3"/>
</linearGradient>
<linearGradient id="paint2_linear" x1="251.309" y1="35.6005" x2="251.309" y2="18.9639" gradientUnits="userSpaceOnUse">
<stop stop-color="#E6E6E6"/>
<stop offset="0.63" stop-color="#E4E4E4"/>
<stop offset="0.86" stop-color="#DDDDDD"/>
<stop offset="1" stop-color="#D4D4D4"/>
</linearGradient>
<linearGradient id="paint3_linear" x1="-29647.7" y1="-3262.74" x2="-32855.8" y2="-3262.74" gradientUnits="userSpaceOnUse">
<stop stop-color="#E6E6E6"/>
<stop offset="0.63" stop-color="#E4E4E4"/>
<stop offset="0.86" stop-color="#DDDDDD"/>
<stop offset="1" stop-color="#D4D4D4"/>
</linearGradient>
<linearGradient id="paint4_linear" x1="-57540.8" y1="3473.62" x2="-57540.8" y2="3656.79" gradientUnits="userSpaceOnUse">
<stop stop-color="#E6E6E6"/>
<stop offset="0.63" stop-color="#E4E4E4"/>
<stop offset="0.86" stop-color="#DDDDDD"/>
<stop offset="1" stop-color="#D4D4D4"/>
</linearGradient>
<linearGradient id="paint5_linear" x1="-17868.1" y1="7654.19" x2="-14660" y2="7654.19" gradientUnits="userSpaceOnUse">
<stop stop-color="#E6E6E6"/>
<stop offset="0.63" stop-color="#E4E4E4"/>
<stop offset="0.86" stop-color="#DDDDDD"/>
<stop offset="1" stop-color="#D4D4D4"/>
</linearGradient>
<linearGradient id="paint6_linear" x1="178.503" y1="0" x2="178.503" y2="14.0376" gradientUnits="userSpaceOnUse">
<stop stop-color="#E6E6E6"/>
<stop offset="1" stop-color="#C9C9C9"/>
</linearGradient>
<linearGradient id="paint7_linear" x1="8903.65" y1="-1328.57" x2="12492.4" y2="-1328.57" gradientUnits="userSpaceOnUse">
<stop stop-color="#E6E6E6"/>
<stop offset="1" stop-color="#C9C9C9"/>
</linearGradient>
<linearGradient id="paint8_linear" x1="-30632.2" y1="1827.58" x2="-30632.2" y2="1785.14" gradientUnits="userSpaceOnUse">
<stop stop-color="#E6E6E6"/>
<stop offset="1" stop-color="#C9C9C9"/>
</linearGradient>
<linearGradient id="paint9_linear" x1="10093.3" y1="6464.2" x2="6501.37" y2="6464.2" gradientUnits="userSpaceOnUse">
<stop stop-color="#E6E6E6"/>
<stop offset="1" stop-color="#C9C9C9"/>
</linearGradient>
<linearGradient id="paint10_linear" x1="178.5" y1="387.026" x2="178.5" y2="399.84" gradientUnits="userSpaceOnUse">
<stop stop-color="#F2F2F2"/>
<stop offset="0.75" stop-color="#D4D4D4"/>
<stop offset="1" stop-color="#C9C9C9"/>
</linearGradient>
<linearGradient id="paint11_linear" x1="994.053" y1="677.233" x2="989.309" y2="677.233" gradientUnits="userSpaceOnUse">
<stop stop-color="#E6E6E6"/>
<stop offset="1" stop-color="#C9C9C9"/>
</linearGradient>
<linearGradient id="paint12_linear" x1="994.053" y1="5083.62" x2="989.309" y2="5083.62" gradientUnits="userSpaceOnUse">
<stop stop-color="#E6E6E6"/>
<stop offset="1" stop-color="#C9C9C9"/>
</linearGradient>
</defs>
</svg>
